<svg width="167" height="24" viewBox="0 0 167 24" fill="none" xmlns="http://www.w3.org/2000/svg">
<g clip-path="url(#clip0_1_1726)">
<path d="M18.8974 2.14008V5.08008H17.1574C16.5174 5.08008 16.0841 5.21341 15.8574 5.48008C15.6308 5.74675 15.5174 6.14674 15.5174 6.68008V8.80008H18.7974L18.3574 12.1001H15.5174V20.5801H12.0974V12.1001H9.25745V8.80008H12.0974V6.36008C12.0974 4.97341 12.4841 3.90008 13.2574 3.14008C14.0308 2.38008 15.0641 2.00008 16.3574 2.00008C17.4508 2.00008 18.2974 2.04675 18.8974 2.14008Z" fill="#B7926A"/>
</g>
<g clip-path="url(#clip1_1_1726)">
<path d="M58.5675 6.55998C58.0742 7.27998 57.4742 7.89998 56.7675 8.41998V8.87998C56.7675 9.85331 56.6275 10.82 56.3475 11.78C56.0675 12.74 55.6409 13.6666 55.0675 14.56C54.4942 15.4533 53.8075 16.2333 53.0075 16.9C52.2075 17.5666 51.2475 18.1133 50.1275 18.54C49.0075 18.9666 47.8009 19.1666 46.5075 19.14C44.4942 19.14 42.6542 18.6 40.9875 17.52C41.2409 17.5466 41.5275 17.56 41.8475 17.56C43.5275 17.56 45.0209 17.0466 46.3275 16.02C45.5409 16.0066 44.8409 15.7666 44.2275 15.3C43.6142 14.8333 43.1875 14.24 42.9475 13.52C43.2009 13.56 43.4275 13.58 43.6275 13.58C43.9475 13.58 44.2675 13.54 44.5875 13.46C43.7475 13.2866 43.0542 12.8733 42.5075 12.22C41.9609 11.5666 41.6875 10.8 41.6875 9.91998V9.87998C42.1942 10.16 42.7409 10.3133 43.3275 10.34C42.8342 10.0066 42.4409 9.57998 42.1475 9.05998C41.8542 8.53998 41.7075 7.95998 41.7075 7.31998C41.7075 6.67998 41.8742 6.07998 42.2075 5.51998C43.1142 6.62665 44.2075 7.51331 45.4875 8.17998C46.7675 8.84665 48.1542 9.21332 49.6475 9.27998C49.5809 8.99998 49.5475 8.72665 49.5475 8.45998C49.5475 7.45998 49.9009 6.61331 50.6075 5.91998C51.3142 5.22665 52.1609 4.87331 53.1475 4.85998C54.2009 4.85998 55.0809 5.23998 55.7875 5.99998C56.6009 5.83998 57.3675 5.54665 58.0875 5.11998C57.8075 5.97331 57.2742 6.63998 56.4875 7.11998C57.1809 7.03998 57.8742 6.85331 58.5675 6.55998Z" fill="#B7926A"/>
</g>
<path d="M88.4174 12.0001C88.4174 11.2134 88.1441 10.5401 87.5974 9.98008C87.0508 9.42008 86.3774 9.14008 85.5774 9.14008C84.7774 9.14008 84.1041 9.42008 83.5574 9.98008C83.0108 10.5401 82.7308 11.2134 82.7174 12.0001C82.7041 12.7867 82.9841 13.4601 83.5574 14.0201C84.1308 14.5801 84.8041 14.8601 85.5774 14.8601C86.3508 14.8601 87.0241 14.5801 87.5974 14.0201C88.1708 13.4601 88.4441 12.7867 88.4174 12.0001ZM89.9574 12.0001C89.9574 13.2134 89.5308 14.2534 88.6774 15.1201C87.8241 15.9867 86.7908 16.4134 85.5774 16.4001C84.3641 16.3867 83.3241 15.9601 82.4574 15.1201C81.5908 14.2801 81.1641 13.2401 81.1774 12.0001C81.1908 10.7601 81.6174 9.72008 82.4574 8.88008C83.2974 8.04008 84.3374 7.61341 85.5774 7.60008C86.8174 7.58675 87.8508 8.01341 88.6774 8.88008C89.5041 9.74675 89.9308 10.7867 89.9574 12.0001ZM91.1774 7.42008C91.1774 7.70008 91.0774 7.94008 90.8774 8.14008C90.6774 8.34008 90.4308 8.44008 90.1374 8.44008C89.8441 8.44008 89.6041 8.34008 89.4174 8.14008C89.2308 7.94008 89.1308 7.70008 89.1174 7.42008C89.1041 7.14008 89.2041 6.90008 89.4174 6.70008C89.6308 6.50008 89.8708 6.40008 90.1374 6.40008C90.4041 6.40008 90.6508 6.50008 90.8774 6.70008C91.1041 6.90008 91.2041 7.14008 91.1774 7.42008ZM85.5774 4.96008C85.5241 4.96008 85.2374 4.96008 84.7174 4.96008H83.5374C83.2708 4.96008 82.9108 4.97341 82.4574 5.00008C82.0041 5.02674 81.6241 5.06008 81.3174 5.10008C81.0108 5.14008 80.7441 5.21341 80.5174 5.32008C80.1441 5.46675 79.8174 5.68008 79.5374 5.96008C79.2574 6.24008 79.0374 6.56674 78.8774 6.94008C78.7974 7.15341 78.7308 7.42008 78.6774 7.74008C78.6241 8.06008 78.5841 8.44674 78.5574 8.90008C78.5308 9.35341 78.5241 9.70675 78.5374 9.96008C78.5508 10.2134 78.5508 10.6067 78.5374 11.1401C78.5241 11.6734 78.5241 11.9601 78.5374 12.0001C78.5508 12.0401 78.5508 12.3267 78.5374 12.8601C78.5241 13.3934 78.5241 13.7867 78.5374 14.0401C78.5508 14.2934 78.5574 14.6467 78.5574 15.1001C78.5574 15.5534 78.5974 15.9401 78.6774 16.2601L78.8774 17.0601C79.0374 17.4334 79.2574 17.7601 79.5374 18.0401C79.8174 18.3201 80.1441 18.5334 80.5174 18.6801C80.7308 18.7601 80.9974 18.8334 81.3174 18.9001C81.6374 18.9667 82.0174 19.0001 82.4574 19.0001C82.8974 19.0001 83.2574 19.0134 83.5374 19.0401C83.8174 19.0667 84.2108 19.0667 84.7174 19.0401C85.2241 19.0134 85.5108 19.0134 85.5774 19.0401C85.6441 19.0667 85.9241 19.0667 86.4174 19.0401C86.9108 19.0134 87.3041 19.0134 87.5974 19.0401C87.8908 19.0667 88.2508 19.0534 88.6774 19.0001C89.1041 18.9467 89.4908 18.9134 89.8374 18.9001C90.1841 18.8867 90.4441 18.8134 90.6174 18.6801C90.9908 18.5334 91.3241 18.3201 91.6174 18.0401C91.9108 17.7601 92.1241 17.4334 92.2574 17.0601C92.3374 16.8467 92.4041 16.5801 92.4574 16.2601C92.5108 15.9401 92.5508 15.5534 92.5774 15.1001C92.6041 14.6467 92.6108 14.2934 92.5974 14.0401C92.5841 13.7867 92.5841 13.3934 92.5974 12.8601C92.6108 12.3267 92.6108 12.0401 92.5974 12.0001C92.5841 11.9601 92.5841 11.6734 92.5974 11.1401C92.6108 10.6067 92.6108 10.2134 92.5974 9.96008C92.5841 9.70675 92.5774 9.35341 92.5774 8.90008C92.5774 8.44674 92.5374 8.06008 92.4574 7.74008L92.2574 6.94008C92.1108 6.56674 91.8974 6.24008 91.6174 5.96008C91.3374 5.68008 91.0041 5.46675 90.6174 5.32008C90.4041 5.24008 90.1441 5.16675 89.8374 5.10008C89.5308 5.03341 89.1441 5.00008 88.6774 5.00008C88.2108 5.00008 87.8508 4.98674 87.5974 4.96008C87.3441 4.93341 86.9508 4.93341 86.4174 4.96008C85.8841 4.98674 85.6041 4.98674 85.5774 4.96008ZM94.1374 12.0001C94.1374 13.7067 94.1174 14.8867 94.0774 15.5401C94.0108 17.0867 93.5508 18.2867 92.6974 19.1401C91.8441 19.9934 90.6508 20.4534 89.1174 20.5201C88.4508 20.5601 87.2708 20.5801 85.5774 20.5801C83.8841 20.5801 82.7041 20.5601 82.0374 20.5201C80.4908 20.4401 79.2908 19.9801 78.4374 19.1401C77.5841 18.3001 77.1241 17.1001 77.0574 15.5401C77.0174 14.8867 76.9974 13.7067 76.9974 12.0001C76.9974 10.2934 77.0174 9.11341 77.0574 8.46008C77.1241 6.91341 77.5841 5.71341 78.4374 4.86008C79.2908 4.00674 80.4908 3.54675 82.0374 3.48008C82.6908 3.44008 83.8708 3.42008 85.5774 3.42008C87.2841 3.42008 88.4641 3.44008 89.1174 3.48008C90.6641 3.56008 91.8574 4.02008 92.6974 4.86008C93.5374 5.70008 93.9974 6.90008 94.0774 8.46008C94.1174 9.11341 94.1374 10.2934 94.1374 12.0001Z" fill="#B7926A"/>
<g clip-path="url(#clip2_1_1726)">
<path d="M113.728 8.66008C113.728 7.86008 113.868 7.10674 114.148 6.40008C114.428 5.69341 114.814 5.07341 115.308 4.54008C115.801 4.00674 116.368 3.54675 117.008 3.16008C117.648 2.77341 118.334 2.48008 119.068 2.28008C119.801 2.08008 120.554 1.98675 121.328 2.00008C122.501 2.00008 123.594 2.24675 124.608 2.74008C125.621 3.23341 126.441 3.95341 127.068 4.90008C127.694 5.84675 128.008 6.91341 128.008 8.10008C128.008 8.82008 127.941 9.52008 127.808 10.2001C127.674 10.8801 127.448 11.5401 127.128 12.1801C126.808 12.8201 126.434 13.3734 126.008 13.8401C125.581 14.3067 125.048 14.6934 124.408 15.0001C123.768 15.3067 123.061 15.4467 122.288 15.4201C121.781 15.4201 121.281 15.3001 120.788 15.0601C120.294 14.8201 119.934 14.4934 119.708 14.0801L119.408 15.3401C119.274 15.8867 119.181 16.2401 119.128 16.4001C119.074 16.5601 119.001 16.8267 118.908 17.2001C118.814 17.5734 118.714 17.8334 118.608 17.9801C118.501 18.1267 118.388 18.3601 118.268 18.6801C118.148 19.0001 117.974 19.2934 117.748 19.5601C117.521 19.8267 117.288 20.1467 117.048 20.5201L116.908 20.5801L116.808 20.4601C116.688 19.2867 116.628 18.5867 116.628 18.3601C116.628 17.6801 116.708 16.9134 116.868 16.0601C117.028 15.2067 117.274 14.1334 117.608 12.8401L118.188 10.5801C117.948 10.1001 117.828 9.47341 117.828 8.70008C117.828 8.07341 118.021 7.49341 118.408 6.96008C118.794 6.42675 119.288 6.15341 119.888 6.14008C120.341 6.14008 120.694 6.29341 120.948 6.60008C121.201 6.90674 121.328 7.28675 121.328 7.74008C121.328 8.23341 121.168 8.94008 120.848 9.86008C120.528 10.7801 120.364 11.4767 120.358 11.9501C120.351 12.4234 120.514 12.8134 120.848 13.1201C121.181 13.4267 121.588 13.5801 122.068 13.5801C122.481 13.5801 122.861 13.4867 123.208 13.3001C123.554 13.1134 123.848 12.8601 124.088 12.5401C124.328 12.2201 124.534 11.8667 124.708 11.4801C124.881 11.0934 125.021 10.6867 125.128 10.2601C125.234 9.83341 125.308 9.42008 125.348 9.02008C125.388 8.62008 125.414 8.24675 125.428 7.90008C125.428 6.62008 125.021 5.62008 124.208 4.90008C123.394 4.18008 122.328 3.82008 121.008 3.82008C119.528 3.82008 118.288 4.30008 117.288 5.26008C116.288 6.22008 115.788 7.44008 115.788 8.92008C115.788 9.25341 115.834 9.57341 115.928 9.88008C116.021 10.1867 116.121 10.4267 116.228 10.6001C116.334 10.7734 116.434 10.9467 116.528 11.1201C116.621 11.2934 116.668 11.4067 116.668 11.4601C116.668 11.6601 116.614 11.9267 116.508 12.2601C116.401 12.5934 116.261 12.7601 116.088 12.7601L115.908 12.7401C115.521 12.6201 115.181 12.4134 114.888 12.1201C114.594 11.8267 114.368 11.4734 114.208 11.0601C114.048 10.6467 113.928 10.2467 113.848 9.86008C113.768 9.47341 113.728 9.07341 113.728 8.66008Z" fill="#B7926A"/>
</g>
<defs>
<clipPath id="clip0_1_1726">
<rect width="20" height="20" fill="white" transform="matrix(1 0 0 -1 5 22)"/>
</clipPath>
<clipPath id="clip1_1_1726">
<rect width="20" height="20" fill="white" transform="matrix(1 0 0 -1 40.3 22)"/>
</clipPath>
<clipPath id="clip2_1_1726">
<rect width="20" height="20" fill="white" transform="matrix(1 0 0 -1 110.9 22)"/>
</clipPath>
</defs>
</svg>
